<svg width="24" height="24" viewBox="0 0 24 24" fill="none" xmlns="http://www.w3.org/2000/svg">
<path d="M6.75001 12.0004C6.91834 12.0066 7.08387 11.9559 7.21993 11.8566C7.35598 11.7573 7.45464 11.6151 7.50001 11.4529C7.7197 10.4887 8.20724 9.60611 8.90651 8.90685C9.60577 8.20759 10.4883 7.72004 11.4525 7.50035C11.6083 7.45491 11.7451 7.36017 11.8425 7.23035C11.9399 7.10053 11.9925 6.94263 11.9925 6.78035C11.9925 6.61807 11.9399 6.46017 11.8425 6.33035C11.7451 6.20053 11.6083 6.10579 11.4525 6.06035C10.4782 5.84119 9.58747 5.34636 8.88665 4.6349C8.18582 3.92343 7.70446 3.02537 7.50001 2.04785C7.50001 1.84894 7.42099 1.65817 7.28034 1.51752C7.13968 1.37687 6.94892 1.29785 6.75001 1.29785C6.5511 1.29785 6.36033 1.37687 6.21968 1.51752C6.07902 1.65817 6.00001 1.84894 6.00001 2.04785C5.78032 3.01205 5.29277 3.89459 4.59351 4.59385C3.89424 5.29311 3.0117 5.78066 2.04751 6.00035C1.89172 6.04579 1.75487 6.14053 1.65751 6.27035C1.56014 6.40017 1.50751 6.55807 1.50751 6.72035C1.50751 6.88263 1.56014 7.04053 1.65751 7.17035C1.75487 7.30017 1.89172 7.39491 2.04751 7.44035C3.01945 7.6646 3.90739 8.1611 4.60737 8.87171C5.30736 9.58232 5.79042 10.4776 6.00001 11.4529C6.04537 11.6151 6.14403 11.7573 6.28009 11.8566C6.41614 11.9559 6.58167 12.0066 6.75001 12.0004ZM4.24501 6.75035C5.30267 6.17248 6.17214 5.30302 6.75001 4.24535C7.32788 5.30302 8.19734 6.17248 9.25501 6.75035C8.19734 7.32822 7.32788 8.19768 6.75001 9.25535C6.17214 8.19768 5.30267 7.32822 4.24501 6.75035Z" fill="#232323"/>
<path d="M13.7025 17.2503C12.9208 17.0733 12.2052 16.6786 11.6385 16.1118C11.0718 15.5451 10.677 14.8295 10.5 14.0478C10.4546 13.892 10.3598 13.7552 10.23 13.6578C10.1002 13.5604 9.94228 13.5078 9.78001 13.5078C9.61773 13.5078 9.45983 13.5604 9.33001 13.6578C9.20018 13.7552 9.10544 13.892 9.06001 14.0478C8.87844 14.8373 8.47478 15.5583 7.89669 16.1258C7.31859 16.6932 6.5902 17.0834 5.79751 17.2503C5.64172 17.2958 5.50487 17.3905 5.40751 17.5203C5.31014 17.6501 5.25751 17.808 5.25751 17.9703C5.25751 18.1326 5.31014 18.2905 5.40751 18.4203C5.50487 18.5501 5.64172 18.6449 5.79751 18.6903C6.58697 18.8719 7.30799 19.2755 7.87546 19.8536C8.44292 20.4317 8.83313 21.1601 9.00001 21.9528C9.04544 22.1086 9.14018 22.2454 9.27001 22.3428C9.39983 22.4402 9.55773 22.4928 9.72001 22.4928C9.88228 22.4928 10.0402 22.4402 10.17 22.3428C10.2998 22.2454 10.3946 22.1086 10.44 21.9528C10.6216 21.1634 11.0252 20.4423 11.6033 19.8749C12.1814 19.3074 12.9098 18.9172 13.7025 18.7503C13.8583 18.7049 13.9951 18.6101 14.0925 18.4803C14.1899 18.3505 14.2425 18.1926 14.2425 18.0303C14.2425 17.868 14.1899 17.7101 14.0925 17.5803C13.9951 17.4505 13.8583 17.3558 13.7025 17.3103V17.2503ZM9.75001 19.8378C9.29669 19.0845 8.66583 18.4536 7.91251 18.0003C8.66931 17.5515 9.30117 16.9196 9.75001 16.1628C10.1949 16.9227 10.8277 17.5554 11.5875 18.0003C10.8307 18.4492 10.1988 19.081 9.75001 19.8378Z" fill="#232323"/>
<path d="M23.025 10.335C22.9254 10.2379 22.8007 10.1704 22.665 10.14C21.4279 9.86328 20.295 9.24035 19.3986 8.34395C18.5022 7.44755 17.8792 6.31466 17.6025 5.07753C17.5815 4.97499 17.5393 4.87798 17.4786 4.79273C17.4179 4.70748 17.34 4.63588 17.25 4.58253C17.1198 4.51627 16.973 4.48949 16.8278 4.50548C16.6826 4.52147 16.5452 4.57953 16.4325 4.67253C16.3053 4.78209 16.216 4.92911 16.1775 5.09253C15.8985 6.33354 15.2711 7.46914 14.369 8.36591C13.4669 9.26267 12.3276 9.88336 11.085 10.155C10.9292 10.2005 10.7923 10.2952 10.695 10.425C10.5976 10.5549 10.545 10.7128 10.545 10.875C10.545 11.0373 10.5976 11.1952 10.695 11.325C10.7923 11.4549 10.9292 11.5496 11.085 11.595C12.3327 11.8751 13.4752 12.5039 14.3794 13.4081C15.2836 14.3124 15.9124 15.4548 16.1925 16.7025C16.2379 16.8583 16.3327 16.9952 16.4625 17.0925C16.5923 17.1899 16.7502 17.2425 16.9125 17.2425C17.0748 17.2425 17.2327 17.1899 17.3625 17.0925C17.4923 16.9952 17.587 16.8583 17.6325 16.7025C17.9053 15.458 18.5282 14.3173 19.4278 13.415C20.3274 12.5128 21.4662 11.8865 22.71 11.61C22.7809 11.5917 22.849 11.564 22.9125 11.5275C23.0001 11.4767 23.0765 11.4086 23.1371 11.3274C23.1977 11.2462 23.2412 11.1535 23.265 11.055C23.2926 10.9245 23.285 10.789 23.2428 10.6624C23.2006 10.5359 23.1254 10.4229 23.025 10.335ZM16.875 14.4C16.1382 12.8587 14.8972 11.6151 13.3575 10.875C14.8939 10.1339 16.1338 8.89395 16.875 7.35753C17.6151 8.89728 18.8587 10.1382 20.4 10.875C18.8595 11.6167 17.6167 12.8596 16.875 14.4Z" fill="#232323"/>
</svg>
