<svg width="50" height="50" viewBox="0 0 50 50" fill="none" xmlns="http://www.w3.org/2000/svg">
<g clip-path="url(#clip0_35_1227)">
<path d="M2.397 38.0325L2.35306 38.0764V38.1385V44.7282C2.35306 46.3334 3.66665 47.6469 5.27176 47.6469H44.7282C46.3334 47.6469 47.6469 46.3334 47.6469 44.7282V33.1426V33.0805L47.603 33.0366L36.5895 22.0231L36.4834 21.917L36.3774 22.0231L21.7472 36.6532C21.3154 37.085 20.6237 37.085 20.1919 36.6532L12.0901 28.5515L11.9841 28.4454L11.878 28.5515L2.397 38.0325ZM47.3909 29.7036L47.6469 29.9593V29.5975V5.27176C47.6469 3.66665 46.3334 2.35306 44.7282 2.35306H5.27176C3.66665 2.35306 2.35306 3.66665 2.35306 5.27176V34.5934V34.9555L2.60913 34.6994L11.2013 26.1073C11.6331 25.6755 12.3248 25.6755 12.7566 26.1073L20.8584 34.209L20.9644 34.3151L21.0705 34.209L35.7007 19.5789C36.1325 19.1471 36.8242 19.1471 37.256 19.5789L37.2561 19.5789L47.3909 29.7036ZM5.27176 49.85C2.4529 49.85 0.15 47.5569 0.15 44.7282V5.27176C0.15 2.4529 2.44306 0.15 5.27176 0.15H44.7282C47.5471 0.15 49.85 2.44306 49.85 5.27176V44.7282C49.85 47.5471 47.5569 49.85 44.7282 49.85H5.27176Z" fill="#232323" stroke="white" stroke-width="0.3"/>
<path d="M21.7135 13.6696C21.7135 17.0912 18.9301 19.8846 15.4985 19.8846C12.067 19.8846 9.28361 17.0912 9.28361 13.6696C9.28361 10.2482 12.0771 7.45469 15.4985 7.45469C18.92 7.45469 21.7135 10.2482 21.7135 13.6696ZM19.5104 13.6696C19.5104 11.462 17.7169 9.65775 15.4985 9.65775C13.2802 9.65775 11.4867 11.462 11.4867 13.6696C11.4867 15.8775 13.2906 17.6815 15.4985 17.6815C17.7064 17.6815 19.5104 15.8775 19.5104 13.6696Z" fill="#232323" stroke="white" stroke-width="0.3"/>
</g>
<defs>
<clipPath id="clip0_35_1227">
<rect width="50" height="50" fill="white"/>
</clipPath>
</defs>
</svg>
