<svg width="17" height="17" viewBox="0 0 17 17" fill="none" xmlns="http://www.w3.org/2000/svg">
<path fill-rule="evenodd" clip-rule="evenodd" d="M2.66667 3.339C2.29848 3.339 2 3.61082 2 3.94614V14.5711C2 14.9064 2.29848 15.1782 2.66667 15.1782H14.3333C14.7015 15.1782 15 14.9064 15 14.5711V3.94614C15 3.61082 14.7015 3.339 14.3333 3.339H2.66667ZM0 3.94614C0 2.60488 1.19391 1.51758 2.66667 1.51758H14.3333C15.8061 1.51758 17 2.60488 17 3.94614V14.5711C17 15.9124 15.8061 16.9997 14.3333 16.9997H2.66667C1.19391 16.9997 0 15.9124 0 14.5711V3.94614Z" fill="#232323"/>
<path fill-rule="evenodd" clip-rule="evenodd" d="M11.8333 0C12.3856 0 12.8333 0.407739 12.8333 0.91071V3.94641C12.8333 4.44938 12.3856 4.85712 11.8333 4.85712C11.281 4.85712 10.8333 4.44938 10.8333 3.94641V0.91071C10.8333 0.407739 11.281 0 11.8333 0Z" fill="#232323"/>
<path fill-rule="evenodd" clip-rule="evenodd" d="M5.16675 0C5.71903 0 6.16675 0.407739 6.16675 0.91071V3.94641C6.16675 4.44938 5.71903 4.85712 5.16675 4.85712C4.61446 4.85712 4.16675 4.44938 4.16675 3.94641V0.91071C4.16675 0.407739 4.61446 0 5.16675 0Z" fill="#232323"/>
<path fill-rule="evenodd" clip-rule="evenodd" d="M0 6.982C0 6.47903 0.447715 6.07129 1 6.07129H16C16.5523 6.07129 17 6.47903 17 6.982C17 7.48497 16.5523 7.89271 16 7.89271H1C0.447715 7.89271 0 7.48497 0 6.982Z" fill="#232323"/>
</svg>
