<svg width="18" height="20" viewBox="0 0 18 20" fill="none" xmlns="http://www.w3.org/2000/svg">
<path d="M12.2501 1H6.0401C5.6801 1 5.3201 1.18 5.0501 1.45C4.7801 1.72 4.6001 2.08 4.6001 2.44V13.96C4.6001 14.32 4.7801 14.68 5.0501 14.95C5.3201 15.22 5.6801 15.4 6.0401 15.4H14.8601C15.2201 15.4 15.5801 15.22 15.8501 14.95C16.1201 14.68 16.3001 14.32 16.3001 13.96V5.05L12.2501 1Z" stroke="#232323" stroke-width="1.5" stroke-linecap="round" stroke-linejoin="round"/>
<path d="M1 6.04004V17.56C1 17.92 1.18 18.28 1.45 18.55C1.72 18.82 2.08 19 2.44 19H11.26" stroke="#232323" stroke-width="1.5" stroke-linecap="round" stroke-linejoin="round"/>
<path d="M11.8 1V5.5H16.3" stroke="#232323" stroke-width="1.5" stroke-linecap="round" stroke-linejoin="round"/>
</svg>
