<svg width="18" height="19" viewBox="0 0 18 19" fill="none" xmlns="http://www.w3.org/2000/svg">
<path fill-rule="evenodd" clip-rule="evenodd" d="M0 4.31774C0 3.84076 0.386663 3.4541 0.863636 3.4541H16.4091C16.8861 3.4541 17.2727 3.84076 17.2727 4.31774C17.2727 4.79471 16.8861 5.18137 16.4091 5.18137H0.863636C0.386663 5.18137 0 4.79471 0 4.31774Z" fill="#CBCBCB"/>
<path fill-rule="evenodd" clip-rule="evenodd" d="M2.5909 3.4541C3.06787 3.4541 3.45453 3.84076 3.45453 4.31774V16.4086C3.45453 16.5596 3.5387 16.7828 3.74135 16.9855C3.94401 17.1881 4.16723 17.2723 4.31817 17.2723H12.9545C13.1055 17.2723 13.3287 17.1881 13.5314 16.9855C13.734 16.7828 13.8182 16.5596 13.8182 16.4086V4.31774C13.8182 3.84076 14.2048 3.4541 14.6818 3.4541C15.1588 3.4541 15.5454 3.84076 15.5454 4.31774V16.4086C15.5454 17.1213 15.1978 17.7618 14.7527 18.2068C14.3076 18.6519 13.6672 18.9996 12.9545 18.9996H4.31817C3.60547 18.9996 2.96506 18.6519 2.51999 18.2068C2.07491 17.7618 1.72726 17.1213 1.72726 16.4086V4.31774C1.72726 3.84076 2.11392 3.4541 2.5909 3.4541Z" fill="#CBCBCB"/>
<path fill-rule="evenodd" clip-rule="evenodd" d="M6.33226 2.01409C6.12961 2.21675 6.04544 2.43997 6.04544 2.59091V4.31818C6.04544 4.79515 5.65878 5.18182 5.18181 5.18182C4.70483 5.18182 4.31817 4.79515 4.31817 4.31818V2.59091C4.31817 1.87821 4.66582 1.2378 5.11089 0.792726C5.55597 0.347654 6.19638 0 6.90908 0H10.3636C11.0763 0 11.7167 0.347654 12.1618 0.792726C12.6069 1.2378 12.9545 1.87821 12.9545 2.59091V4.31818C12.9545 4.79515 12.5679 5.18182 12.0909 5.18182C11.6139 5.18182 11.2273 4.79515 11.2273 4.31818V2.59091C11.2273 2.43997 11.1431 2.21675 10.9404 2.01409C10.7378 1.81144 10.5146 1.72727 10.3636 1.72727H6.90908C6.75814 1.72727 6.53492 1.81144 6.33226 2.01409Z" fill="#CBCBCB"/>
<path fill-rule="evenodd" clip-rule="evenodd" d="M6.90911 7.77246C7.38609 7.77246 7.77275 8.15912 7.77275 8.6361V13.8179C7.77275 14.2949 7.38609 14.6816 6.90911 14.6816C6.43214 14.6816 6.04548 14.2949 6.04548 13.8179V8.6361C6.04548 8.15912 6.43214 7.77246 6.90911 7.77246Z" fill="#CBCBCB"/>
<path fill-rule="evenodd" clip-rule="evenodd" d="M10.3636 7.77246C10.8406 7.77246 11.2273 8.15912 11.2273 8.6361V13.8179C11.2273 14.2949 10.8406 14.6816 10.3636 14.6816C9.88666 14.6816 9.5 14.2949 9.5 13.8179V8.6361C9.5 8.15912 9.88666 7.77246 10.3636 7.77246Z" fill="#CBCBCB"/>
</svg>
