<svg width="19" height="19" viewBox="0 0 19 19" fill="none" xmlns="http://www.w3.org/2000/svg">
<g clip-path="url(#clip0_1_5417)">
<path d="M15.8333 9.5V17.4167H3.16666V9.5" stroke="#232323" stroke-width="1.5" stroke-linecap="round" stroke-linejoin="round"/>
<path d="M17.4167 5.54166H1.58334V9.5H17.4167V5.54166Z" stroke="#232323" stroke-width="1.5" stroke-linecap="round" stroke-linejoin="round"/>
<path d="M9.5 17.4167V5.54166" stroke="#232323" stroke-width="1.5" stroke-linecap="round" stroke-linejoin="round"/>
<path d="M9.50001 5.54167H5.93751C5.4126 5.54167 4.90919 5.33315 4.53803 4.96198C4.16686 4.59082 3.95834 4.08741 3.95834 3.5625C3.95834 3.03759 4.16686 2.53419 4.53803 2.16302C4.90919 1.79185 5.4126 1.58334 5.93751 1.58334C8.70834 1.58334 9.50001 5.54167 9.50001 5.54167Z" stroke="#232323" stroke-width="1.5" stroke-linecap="round" stroke-linejoin="round"/>
<path d="M9.5 5.54167H13.0625C13.5874 5.54167 14.0908 5.33315 14.462 4.96198C14.8331 4.59082 15.0417 4.08741 15.0417 3.5625C15.0417 3.03759 14.8331 2.53419 14.462 2.16302C14.0908 1.79185 13.5874 1.58334 13.0625 1.58334C10.2917 1.58334 9.5 5.54167 9.5 5.54167Z" stroke="#232323" stroke-width="1.5" stroke-linecap="round" stroke-linejoin="round"/>
</g>
<defs>
<clipPath id="clip0_1_5417">
<rect width="19" height="19" fill="white"/>
</clipPath>
</defs>
</svg>
