<svg width="21" height="21" viewBox="0 0 21 21" fill="none" xmlns="http://www.w3.org/2000/svg">
<path d="M7.875 14.875H6.125C4.96468 14.875 3.85188 14.4141 3.03141 13.5936C2.21094 12.7731 1.75 11.6603 1.75 10.5C1.75 9.33968 2.21094 8.22688 3.03141 7.40641C3.85188 6.58594 4.96468 6.125 6.125 6.125H7.875" stroke="#232323" stroke-width="2" stroke-linecap="round" stroke-linejoin="round"/>
<path d="M13.125 6.125H14.875C16.0353 6.125 17.1481 6.58594 17.9686 7.40641C18.7891 8.22688 19.25 9.33968 19.25 10.5C19.25 11.6603 18.7891 12.7731 17.9686 13.5936C17.1481 14.4141 16.0353 14.875 14.875 14.875H13.125" stroke="#232323" stroke-width="2" stroke-linecap="round" stroke-linejoin="round"/>
<path d="M7 10.5H14" stroke="#232323" stroke-width="2" stroke-linecap="round" stroke-linejoin="round"/>
</svg>
