<svg width="146" height="55" viewBox="0 0 146 55" fill="none" xmlns="http://www.w3.org/2000/svg">
<circle cx="13" cy="12" r="12" fill="#232323"/>
<circle cx="12" cy="43" r="12" fill="#232323"/>
<circle cx="40" cy="27" r="12" fill="#FC594A"/>
<line x1="11.5" y1="23" x2="11.5" y2="32" stroke="#232323" stroke-width="3"/>
<line x1="30.4878" y1="33.2859" x2="22.7723" y2="37.9196" stroke="#232323" stroke-width="3"/>
<line y1="-1.5" x2="9" y2="-1.5" transform="matrix(0.857277 0.514855 0.514855 -0.857277 24 14)" stroke="#232323" stroke-width="3"/>
<path d="M87.568 16.152V33H83.464V22.896L79.696 33H76.384L72.592 22.872V33H68.488V16.152H73.336L78.064 27.816L82.744 16.152H87.568ZM103.143 26.088C103.143 26.472 103.119 26.872 103.071 27.288H93.7833C93.8473 28.12 94.1113 28.76 94.5753 29.208C95.0553 29.64 95.6393 29.856 96.3273 29.856C97.3513 29.856 98.0633 29.424 98.4633 28.56H102.831C102.607 29.44 102.199 30.232 101.607 30.936C101.031 31.64 100.303 32.192 99.4233 32.592C98.5433 32.992 97.5593 33.192 96.4713 33.192C95.1593 33.192 93.9913 32.912 92.9673 32.352C91.9433 31.792 91.1433 30.992 90.5673 29.952C89.9913 28.912 89.7033 27.696 89.7033 26.304C89.7033 24.912 89.9833 23.696 90.5433 22.656C91.1193 21.616 91.9193 20.816 92.9433 20.256C93.9673 19.696 95.1433 19.416 96.4713 19.416C97.7673 19.416 98.9193 19.688 99.9273 20.232C100.935 20.776 101.719 21.552 102.279 22.56C102.855 23.568 103.143 24.744 103.143 26.088ZM98.9433 25.008C98.9433 24.304 98.7033 23.744 98.2233 23.328C97.7433 22.912 97.1433 22.704 96.4233 22.704C95.7353 22.704 95.1513 22.904 94.6713 23.304C94.2073 23.704 93.9193 24.272 93.8073 25.008H98.9433ZM109.412 21.84C109.892 21.104 110.492 20.528 111.212 20.112C111.932 19.68 112.732 19.464 113.612 19.464V23.808H112.484C111.46 23.808 110.692 24.032 110.18 24.48C109.668 24.912 109.412 25.68 109.412 26.784V33H105.308V19.608H109.412V21.84ZM120.662 19.416C121.606 19.416 122.43 19.608 123.134 19.992C123.854 20.376 124.406 20.88 124.79 21.504V19.608H128.894V32.976C128.894 34.208 128.646 35.32 128.15 36.312C127.67 37.32 126.926 38.12 125.918 38.712C124.926 39.304 123.686 39.6 122.198 39.6C120.214 39.6 118.606 39.128 117.374 38.184C116.142 37.256 115.438 35.992 115.262 34.392H119.318C119.446 34.904 119.75 35.304 120.23 35.592C120.71 35.896 121.302 36.048 122.006 36.048C122.854 36.048 123.526 35.8 124.022 35.304C124.534 34.824 124.79 34.048 124.79 32.976V31.08C124.39 31.704 123.838 32.216 123.134 32.616C122.43 33 121.606 33.192 120.662 33.192C119.558 33.192 118.558 32.912 117.662 32.352C116.766 31.776 116.054 30.968 115.526 29.928C115.014 28.872 114.758 27.656 114.758 26.28C114.758 24.904 115.014 23.696 115.526 22.656C116.054 21.616 116.766 20.816 117.662 20.256C118.558 19.696 119.558 19.416 120.662 19.416ZM124.79 26.304C124.79 25.28 124.502 24.472 123.926 23.88C123.366 23.288 122.678 22.992 121.862 22.992C121.046 22.992 120.35 23.288 119.774 23.88C119.214 24.456 118.934 25.256 118.934 26.28C118.934 27.304 119.214 28.12 119.774 28.728C120.35 29.32 121.046 29.616 121.862 29.616C122.678 29.616 123.366 29.32 123.926 28.728C124.502 28.136 124.79 27.328 124.79 26.304ZM144.487 26.088C144.487 26.472 144.463 26.872 144.415 27.288H135.127C135.191 28.12 135.455 28.76 135.919 29.208C136.399 29.64 136.983 29.856 137.671 29.856C138.695 29.856 139.407 29.424 139.807 28.56H144.175C143.951 29.44 143.543 30.232 142.951 30.936C142.375 31.64 141.647 32.192 140.767 32.592C139.887 32.992 138.903 33.192 137.815 33.192C136.503 33.192 135.335 32.912 134.311 32.352C133.287 31.792 132.487 30.992 131.911 29.952C131.335 28.912 131.047 27.696 131.047 26.304C131.047 24.912 131.327 23.696 131.887 22.656C132.463 21.616 133.263 20.816 134.287 20.256C135.311 19.696 136.487 19.416 137.815 19.416C139.111 19.416 140.263 19.688 141.271 20.232C142.279 20.776 143.063 21.552 143.623 22.56C144.199 23.568 144.487 24.744 144.487 26.088ZM140.287 25.008C140.287 24.304 140.047 23.744 139.567 23.328C139.087 22.912 138.487 22.704 137.767 22.704C137.079 22.704 136.495 22.904 136.015 23.304C135.551 23.704 135.263 24.272 135.151 25.008H140.287Z" fill="#232323"/>
</svg>
