<svg width="70" height="30" viewBox="0 0 70 30" fill="none" xmlns="http://www.w3.org/2000/svg">
<path d="M0 15C0 6.71573 6.71573 0 15 0H55C63.2843 0 70 6.71573 70 15C70 23.2843 63.2843 30 55 30H15C6.71573 30 0 23.2843 0 15Z" fill="#EBF6F0"/>
<path d="M27.092 13.252C27.092 13.7747 26.966 14.2647 26.714 14.722C26.4713 15.1793 26.084 15.548 25.552 15.828C25.0293 16.108 24.3667 16.248 23.564 16.248H21.926V20H19.966V10.228H23.564C24.32 10.228 24.964 10.3587 25.496 10.62C26.028 10.8813 26.4247 11.2407 26.686 11.698C26.9567 12.1553 27.092 12.6733 27.092 13.252ZM23.48 14.666C24.0213 14.666 24.4227 14.5447 24.684 14.302C24.9453 14.05 25.076 13.7 25.076 13.252C25.076 12.3 24.544 11.824 23.48 11.824H21.926V14.666H23.48ZM27.9796 16.094C27.9796 15.31 28.1336 14.6147 28.4416 14.008C28.7589 13.4013 29.1836 12.9347 29.7156 12.608C30.2569 12.2813 30.8589 12.118 31.5216 12.118C32.1002 12.118 32.6042 12.2347 33.0336 12.468C33.4722 12.7013 33.8222 12.9953 34.0836 13.35V12.244H36.0576V20H34.0836V18.866C33.8316 19.23 33.4816 19.5333 33.0336 19.776C32.5949 20.0093 32.0862 20.126 31.5076 20.126C30.8542 20.126 30.2569 19.958 29.7156 19.622C29.1836 19.286 28.7589 18.8147 28.4416 18.208C28.1336 17.592 27.9796 16.8873 27.9796 16.094ZM34.0836 16.122C34.0836 15.646 33.9902 15.24 33.8036 14.904C33.6169 14.5587 33.3649 14.2973 33.0476 14.12C32.7302 13.9333 32.3896 13.84 32.0256 13.84C31.6616 13.84 31.3256 13.9287 31.0176 14.106C30.7096 14.2833 30.4576 14.5447 30.2616 14.89C30.0749 15.226 29.9816 15.6273 29.9816 16.094C29.9816 16.5607 30.0749 16.9713 30.2616 17.326C30.4576 17.6713 30.7096 17.9373 31.0176 18.124C31.3349 18.3107 31.6709 18.404 32.0256 18.404C32.3896 18.404 32.7302 18.3153 33.0476 18.138C33.3649 17.9513 33.6169 17.69 33.8036 17.354C33.9902 17.0087 34.0836 16.598 34.0836 16.122ZM38.9659 11.32C38.6205 11.32 38.3312 11.2127 38.0979 10.998C37.8739 10.774 37.7619 10.4987 37.7619 10.172C37.7619 9.84533 37.8739 9.57467 38.0979 9.36C38.3312 9.136 38.6205 9.024 38.9659 9.024C39.3112 9.024 39.5959 9.136 39.8199 9.36C40.0532 9.57467 40.1699 9.84533 40.1699 10.172C40.1699 10.4987 40.0532 10.774 39.8199 10.998C39.5959 11.2127 39.3112 11.32 38.9659 11.32ZM39.9319 12.244V20H37.9719V12.244H39.9319ZM41.3643 16.094C41.3643 15.31 41.5183 14.6147 41.8263 14.008C42.1437 13.4013 42.573 12.9347 43.1143 12.608C43.6557 12.2813 44.2577 12.118 44.9203 12.118C45.4243 12.118 45.905 12.23 46.3623 12.454C46.8197 12.6687 47.1837 12.958 47.4543 13.322V9.64H49.4423V20H47.4543V18.852C47.2117 19.2347 46.871 19.5427 46.4323 19.776C45.9937 20.0093 45.485 20.126 44.9063 20.126C44.253 20.126 43.6557 19.958 43.1143 19.622C42.573 19.286 42.1437 18.8147 41.8263 18.208C41.5183 17.592 41.3643 16.8873 41.3643 16.094ZM47.4683 16.122C47.4683 15.646 47.375 15.24 47.1883 14.904C47.0017 14.5587 46.7497 14.2973 46.4323 14.12C46.115 13.9333 45.7743 13.84 45.4103 13.84C45.0463 13.84 44.7103 13.9287 44.4023 14.106C44.0943 14.2833 43.8423 14.5447 43.6463 14.89C43.4597 15.226 43.3663 15.6273 43.3663 16.094C43.3663 16.5607 43.4597 16.9713 43.6463 17.326C43.8423 17.6713 44.0943 17.9373 44.4023 18.124C44.7197 18.3107 45.0557 18.404 45.4103 18.404C45.7743 18.404 46.115 18.3153 46.4323 18.138C46.7497 17.9513 47.0017 17.69 47.1883 17.354C47.375 17.0087 47.4683 16.598 47.4683 16.122Z" fill="#3AE17E"/>
</svg>
